<svg class="icon" width="18px" height="18px" viewBox="0 0 14 18" xmlns="http://www.w3.org/2000/svg"><path class="shape" fill="#C9BCDC" d="M9.282525,10.64335 C8.611225,11.44178.069075,11.3129 8.069075,11.3129 L8.5337,10.192725 L9.721425,9.252625 C9.721425,9.252625 9.953825,9.845 9.282525,10.64335 M7.843325,16.17685 C7.843325,16.17685 7.503475,15.613875 7.33355,15.332475 L6.999825,15.84645 L6.6661,15.332475 C6.496175,15.613875 6.156325,16.17685 6.156325,16.17685 C6.156325,16.17685 5.438825,15.278575 5.438825,14.298925 C5.438825,13.31945 5.6182,12.50605 5.6182,12.50605 L6.107325,13.987425 L6.49425,13.6978 C6.49425,13.6978 6.605025,14.05165 6.999825,14.5693 C7.39445,14.05165 7.505225,13.6978 7.505225,13.6978 L7.892325,13.987425 L8.381275,12.50605 C8.381275,12.50605 8.560825,13.31945 8.560825,14.298925 C8.560825,15.278575 7.843325,16.17685 7.843325,16.17685 M4.149775,9.252625 L5.424125,10.192725 L5.922875,11.4956 C5.922875,11.4956 4.149775,11.213325 4.149775,9.252625 M9.493575,-0.0005 L9.02265,0.513475 L9.194325,4.331625 C9.194325,4.331625 10.231725,5.096725 10.231725,6.0405 C10.231725,6.730525 9.767975,7.222975 9.276225,7.222975 C8.56765,7.222975 8.02585,6.47275 8.29395,5.55505 L7.000175,3.375775 L6.999825,3.375775 L5.705875,5.55505 C5.973975,6.47275 5.432175,7.222975 4.723775,7.222975 C4.232025,7.222975 3.768275,6.730525 3.768275,6.0405 C3.768275,5.096725 4.8055,4.331625 4.8055,4.331625 L4.977175,0.513475 L4.50625,-0.0005 C4.50625,3.448925 0,6.669975 0,10.24505 C0,12.510425 2.260475,13.944725 2.260475,16.217625 C2.260475,16.217625 2.6649,15.643625 2.6649,14.24555 C2.6649,12.8473 2.1504,12.74125 2.1504,11.87395 C2.1504,11.006825 2.927225,10.17225 2.927225,10.17225 C2.927225,11.666925 4.60985,12.917825 4.60985,13.628675 C4.60985,14.612525 5.48485,17.4995 7,17.4995 C8.514975,17.4995 9.39015,14.612525 9.39015,13.628675 C9.39015,12.917825 11.0726,11.666925 11.0726,10.17225 C11.0726,10.17225 11.849425,11.006825 11.849425,11.87395 C11.849425,12.74125 11.334925,12.8473 11.334925,14.24555 C11.334925,15.643625 11.73935,16.217625 11.73935,16.217625 C11.73935,13.944725 14,12.510425 14,10.24505 C14,6.669975 9.493575,3.448925 9.493575,-0.0005"></path></svg>