<svg class="icon" width="18px" height="18px" viewBox="0 0 14 18" xmlns="http://www.w3.org/2000/svg"><path class="shape" fill="#ADD2ED" d="M3.839325,1 C3.839325,1 8.2243,2.667575 8.2243,6.623975 C8.2243,10.4591 1.939175,10.2722 1.939175,14.969375 C1.939175,15.96705 2.63515,17.3401 2.63515,17.3401 C2.63515,17.3401 0,15.71505 0,13.447575 C0,9.575175 4.95565,11.117975 4.95565,4.486 C4.95565,2.01885 3.839325,1 3.839325,1 M12.4478333,8.7884625 C12.4478333,10.2183875 11.3421833,12.5586625 8.51803332,12.5586625 C4.30910832,12.5586625 3.72618332,14.4448125 3.72618332,14.4448125 C2.98505832,11.7594375 10.5375333,9.9887875 10.5375333,5.9735875 C10.5375333,4.1395875 9.63558332,3.1321125 9.63558332,3.1321125 C9.63558332,3.1321125 12.4478333,5.0774125 12.4478333,8.7884625 M4.55,15.75691 C5.138175,14.079535 6.3917,13.71641 6.3917,13.71641 C6.3917,13.71641 7.9394,14.238085 8.6177,14.238085 C11.88495,14.238085 13.846175,10.297785 13.846175,10.297785 C13.846175,10.297785 14.870975,13.87391 11.552275,17.450035 C11.552275,17.450035 9.60295,15.161035 7.14315,15.161035 C5.651975,15.161035 4.55,15.75691 4.55,15.75691"></path></svg>