<svg width="18px" height="18px" viewBox="0 0 24 24" class="icon" fill="none" xmlns="http://www.w3.org/2000/svg"><path class="shape" fill="#A4B72B" d="M15.8377 6.24546C16.8672 6.24546 17.2548 5.31013 16.7519 4.29806C19.0471 5.60353 21.6148 9.13739 19.0471 11.381C16.9304 13.2303 14.7314 12.2534 12.9652 10.2592C11.8045 8.94874 8.13507 8.00911 8.13507 10.739C8.13507 12.2439 9.19042 13.1114 10.6993 13.3874C10.2969 13.1114 9.51962 12.1294 10.2969 11.1793C11.2292 10.0399 13.2537 12.3425 14.7229 13.1114C16.456 14.0183 18.2637 12.9588 19.2522 13.1771C22.3776 13.8678 21.231 19.3125 16.456 18.6449C14.197 18.3291 12.8524 17.8037 11.9707 18.6449C10.8823 19.6832 13.3545 20.8856 14.2515 20.8856C12.3763 21.5236 7.06641 19.3849 9.41883 17.1584C10.0521 16.559 10.6749 16.3194 11.184 16.3316C11.184 17.5007 12.9846 17.2448 13.7648 16.9625C15.4769 16.3432 14.9583 14.428 13.3163 14.0183C11.2766 13.5096 10.1287 17.3467 5.56753 15.8745C3.83222 15.3145 3 13.9529 3 12.6649C3 11.3768 3.84781 10.592 4.25016 10.0399C3.9193 7.3383 4.8087 5.43267 6.15552 4.29806C8.00363 2.74117 11.9707 2.39384 13.2701 4.31965C13.6292 4.85177 14.4026 6.24546 15.8377 6.24546Z"></path></svg>
