<svg height="1501" viewBox="0 0 323.1405 194" width="2500" xmlns="http://www.w3.org/2000/svg" xmlns:xlink="http://www.w3.org/1999/xlink"><linearGradient id="a" gradientTransform="matrix(1 .00263 -.00263 1 908.807 -114.496)" gradientUnits="userSpaceOnUse" x1="-893.599" x2="-591.738" y1="212.129" y2="212.129"><stop offset="0" stop-color="#4325ba"/><stop offset="1" stop-color="#4325ba"/></linearGradient><linearGradient id="b"><stop offset="0" stop-color="#2358de"/><stop offset="1" stop-color="#2358de"/></linearGradient><linearGradient id="c" gradientTransform="matrix(1 .00263 -.00263 1 908.807 -114.496)" gradientUnits="userSpaceOnUse" x1="-871.42" x2="-613.917" xlink:href="#b" y1="212.129" y2="212.129"/><linearGradient id="d" gradientTransform="matrix(1 .00263 -.00263 1 908.807 -114.496)" gradientUnits="userSpaceOnUse" x1="-854.107" x2="-631.23" y1="212.129" y2="212.129"><stop offset="0" stop-color="#d13d91"/><stop offset="1" stop-color="#d13d91"/></linearGradient><linearGradient id="e"><stop offset="0" stop-color="#ff5e5e"/><stop offset="1" stop-color="#ff5e5e"/></linearGradient><linearGradient id="f" gradientTransform="matrix(1 .00263 -.00263 1 908.807 -114.496)" gradientUnits="userSpaceOnUse" x1="-825.556" x2="-659.781" xlink:href="#e" y1="212.129" y2="212.129"/><linearGradient id="g" gradientTransform="matrix(1 .00263 -.00263 1 908.807 -114.496)" gradientUnits="userSpaceOnUse" x1="-813.894" x2="-671.444" xlink:href="#e" y1="212.129" y2="212.129"/><linearGradient id="h" gradientTransform="matrix(1 .00263 -.00263 1 908.807 -114.496)" gradientUnits="userSpaceOnUse" x1="-798.107" x2="-687.23" y1="212.129" y2="212.129"><stop offset="0" stop-color="#ffd65c"/><stop offset="1" stop-color="#ffd65c"/></linearGradient><linearGradient id="i" gradientTransform="matrix(1 .00263 -.00263 1 908.807 -114.496)" gradientUnits="userSpaceOnUse" x1="-645.011" x2="-638.618" xlink:href="#b" y1="247.702" y2="247.702"/><linearGradient id="j" gradientTransform="matrix(1 .00263 -.00263 1 908.807 -114.496)" gradientUnits="userSpaceOnUse" x1="-617.385" x2="-610.993" xlink:href="#b" y1="119.309" y2="119.309"/><linearGradient id="k" gradientTransform="matrix(.68181964 .73152032 -.73152032 .68181964 8204.52121 -1845.740539)" gradientUnits="userSpaceOnUse" x1="-4040.872" x2="-4032.823" xlink:href="#b" y1="7317.307" y2="7317.307"/><g transform="matrix(.94735567 -.32018313 .32018313 .94735567 -21.915642 58.044936)"><ellipse cx="165.6" cy="95.7" fill="#7300ff" opacity=".25" rx="156.2" ry="70.1"/><ellipse cx="165.6" cy="95.7" fill="#d13d91" opacity=".5" rx="115" ry="51.6"/><ellipse cx="165.6" cy="95.7" fill="#ff5e5e" opacity=".75" rx="85.2" ry="38.2"/><ellipse cx="165.6" cy="95.7" fill="#ff8d4f" rx="73" ry="32.8"/><ellipse cx="165.6" cy="95.7" fill="#ffd65c" rx="44.4" ry="19.9"/><g fill="none" stroke-linecap="round" stroke-linejoin="round" stroke-miterlimit="10" stroke-width="2.681"><ellipse cx="165.6" cy="95.7" rx="156.2" ry="70.1" stroke="url(#a)" stroke-dasharray="148.3725 15.1948 24.1329 116.4188 0 0"/><ellipse cx="165.6" cy="95.7" rx="133" ry="59.7" stroke="url(#c)" stroke-dasharray="148.3725 15.1948 24.1329 116.4188 0 0"/><ellipse cx="165.6" cy="95.7" rx="115" ry="51.6" stroke="url(#d)" stroke-dasharray="148.3725 15.1948 24.1329 116.4188 0 0"/><ellipse cx="165.6" cy="95.7" rx="85.2" ry="38.2" stroke="url(#f)" stroke-dasharray="148.3725 15.1948 24.1329 116.4188 0 0"/><ellipse cx="165.6" cy="95.7" rx="73" ry="32.8" stroke="url(#g)" stroke-dasharray="95.1908 15.1948 24.1329 116.4188 0 0"/><ellipse cx="165.6" cy="95.7" rx="56.5" ry="25.4" stroke="url(#h)" stroke-dasharray="95.1908 15.1948 24.1329 116.4188 0 0"/></g></g><circle cx="302.1" cy="14.1" fill="#7300ff" r="3.2"/><circle cx="266.3" cy="131.5" fill="url(#i)" r="3.2"/><circle cx="294.3" cy="3.2" fill="url(#j)" r="3.2"/><circle cx="99.1" cy="190" fill="url(#k)" r="4"/><circle cx="230.6" cy="159.3" fill="#7300ff" r="3.2"/><circle cx="47.2" cy="60.2" fill="#7300ff" r="4"/><circle cx="4" cy="126.9" fill="#7300ff" r="4"/><circle cx="107.4" cy="167" fill="#7300ff" r="4"/><circle cx="184.5" cy="3.7" fill="#7300ff" r="3.2"/><circle cx="71.7" cy="41.6" fill="#7300ff" r="3.2"/><g fill="#d13d91"><circle cx="247.4" cy="92.2" r="3.2"/><circle cx="62.4" cy="130.9" r="2.2"/><circle cx="230.1" cy="95.5" r="2.2"/><circle cx="77.4" cy="117.6" r="2.2"/><circle cx="125.8" cy="79.5" r="2.2"/><circle cx="210.2" cy="104" r="2.2"/><circle cx="264.2" cy="75.6" r="2.2"/><circle cx="232.4" cy="55.4" r="3.2"/><circle cx="137.5" cy="127.6" r="3.2"/><circle cx="90.6" cy="86.9" r="3.2"/><circle cx="256.9" cy="59.7" r="3.2"/></g><circle cx="69.2" cy="155.5" fill="#9238ff" r="3.2"/><circle cx="56.6" cy="114.9" fill="#9238ff" r="2.2"/><circle cx="185.2" cy="54.1" fill="#9238ff" r="2.2"/><circle cx="281.3" cy="63.2" fill="#9238ff" r="2.2"/><circle cx="303.6" cy="57.7" fill="#9238ff" r="3.2"/><circle cx="263.7" cy="35.6" fill="#9238ff" r="3.2"/><circle cx="289" cy="39.1" fill="#9238ff" r="3.2"/><circle cx="52.3" cy="134.8" fill="#9238ff" r="3.2"/><path d="m186.9 88.4c.1.4.2.8.2 1.2.3 5.3-7.7 12.2-18.9 15.9-11 3.7-21.3 3-24.3-1.2-.3-.4-.5-.8-.6-1.2v-.1c-1.7-5.4 6.6-13.1 18.6-17.1 12.1-4.1 23.2-2.9 25 2.5z" fill="#fff"/><path d="m186.9 88.4c.1.3.1.5.2.8 0 .2.1.3.1.5.3 5.3-7.7 12.2-18.9 15.9-11 3.7-21.3 3-24.3-1.2l-.6-1.2v-.1c-.8-1.7-1.4-3.5-1.7-5.4-2.2-12.3 6.1-24.2 18.6-26.6 12.3-2.4 24 5.4 26.6 17.3z" fill="#fff" opacity=".5"/></svg>