<svg class="icon" width="24px" height="24px" viewBox="0 0 24 24" xmlns="http://www.w3.org/2000/svg"><path class="shape" fill="#555d64" d="M9.0004,1.0004 L9.0004,5.9994 L6.9994,5.0004 L4.0004,6.9994 L4.9994,11.0004 L12.0004,14.9994 L19.0004,11.0004 L20.0004,6.9994 L16.9994,5.0004 L14.9994,5.9994 L14.9994,1.0004 L9.0004,1.0004 Z M11.0004,5.9994 L11.0004,3.0004 L13.0004,3.0004 L13.0004,5.9994 L12.0004,6.9994 L11.0004,5.9994 Z M15.9994,8.9994 L12.0004,12.0004 L7.9994,8.9994 L12.0004,10.0004 L15.9994,8.9994 Z M12.0001,16.9997 L16.0001,14.9997 L15.0001,21.0007 L16.9991,21.0007 L16.9991,22.9997 L7.0001,22.9997 L7.0001,21.0007 L9.0001,21.0007 L7.9991,14.9997 L12.0001,16.9997 Z"></path></svg>